<svg height="26" viewBox="0 0 148 26" width="148" xmlns="http://www.w3.org/2000/svg"><g fill="#fff" fill-rule="evenodd"><path d="m94.1210026 11.5759662-3.6837736 1.7325084.0898786 1.3705282.6291483 2.5955734-1.6178104 1.5864408-1.6178112-1.5864408.5392704-2.5955734v-1.3705282l-3.0681532-1.5043301c.100435-.1963739.1902091-.3635208.2693238-.5014409.1639399-.2857983.5234537-.8146119 1.07854-1.58644064-.4812209.48622914-.8407347.86815004-1.07854 1.14576274-.1834832.2141966-.3859146.4729999-.6072943.77641l-1.4473084-.7096221c-.1750431.3477293-.294881.612136-.3595138.7932203-.0646321.1810842-.1545108.5336266-.2696345 1.0576271l4.224283 2.6440678-.2696351 10.5762712-2.4267161-1.4983051-.5370021-7.2271187-1.9274379-2.5559321-1.0408161-.881356.6291483-1.8508474-.1797565-.1762712c-.3595139-3.29039548-.0299594-5.69943504.9886621-7.22711865 1.0186215-1.52768362 2.8761078-2.82033898 5.572459-3.8779661l.8534323-.70508475h1.3036486l.8987842.79322034c2.2769188.82259887 3.9846079 1.99774011 5.1230673 3.52542373 1.0464543 1.40422378 1.5107153 3.59927549 1.3927824 7.03889903-.0014182.0413742.0476626.1919946.1472431.4518615l-.1126522.1816759.3831814 1.8103008-1.0915277.9172628-1.7610806 2.5559321-.9352707 7.201541-2.1570808 1.5238828-.2696352-10.5762712c1.0667687-.573952 1.845715-1.01463 2.3368374-1.3220339.4911223-.3074039 1.1202714-.7480819 1.8874456-1.3220339l-.5392696-1.8383359-.7689302.3616338c-.3753443-.5506182-.6727444-.9729815-.8922015-1.26709-.2707953-.36291126-.7801064-1.00923893-1.5279319-1.93898312.5283844.92944652.9178575 1.63453125 1.1684187 2.11525422.1942677.3727185.4180107.8273272.6712291 1.3638262z"/><g transform="translate(103 8)"><path d="m8.883 6.195h2.337v4.759l-2.337-1.077z"/><path d="m16.052 6.635h4.258v-2.262h-4.258v-1.859h5.016v-2.262h-7.641v10.505h7.641v-2.263h-5.016z"/><path d="m25.919 6.635h4.258v-2.262h-4.258v-1.859h5.015v-2.262h-7.641v10.505h7.641v-2.263h-5.015z"/><path d="m9.16769634 1.11633586-1.93431057 1.66653301c-.45653832-.22893132-.97716933-.35858936-1.52979308-.35858936-1.80738122 0-3.27255318 1.38688327-3.27255318 3.09769048s1.46517196 3.09769051 3.27255318 3.09769051c1.56306176 0 2.87017978-1.03727206 3.1950066-2.42427954h2.45273591c-.3895572 2.63875893-2.76971178 4.66898274-5.64774251 4.66898274-3.15000726 0-5.70359269-2.43207067-5.70359269-5.43218184 0-3.0001112 2.55358543-5.43218186 5.70359269-5.43218186 1.30290153 0 2.50376706.41607946 3.46410365 1.11633586zm28.35028456 6.27760021 1.8409566-1.83004726 5.1777063 5.19272919h-3.7194905zm-.489666-.49909218-.0484639-.04939686-1.1949495 1.16365414v2.74751683h-2.6255227v-10.50521124h2.6255227v4.18592262l4.3590409-4.18592262h3.5674128l-3.9325283 3.90922445-.9308156.89084897.0172514.01730148z"/></g><g transform="translate(0 8)"><path d="m21.918 10.768 3.072-7.253 3.194 7.132h2.458l-4.423-10.276h-2.335l-4.546 10.397z"/><path d="m53.775 10.768 3.072-7.253 3.194 7.132h2.458l-4.424-10.276h-2.335l-4.545 10.397z"/><path d="m6.44988057 3.73181091c-.00001068.01046043-.00019937.01608539-.00019937.01608539v-.01608539zm0 0c.00008829-.08642675-.01197488-.50294624-.24301301-.8042696-.32375153-.45039096-.97125458-.72384263-1.87775885-.72384263-.93887941 0-2.02344703.24128088-2.02344703.94903812 0 .67558646.71225336 1.07772126 2.15294764 1.23857517 1.60257005.17693931 2.78426312.67558646 3.49651648 1.49594145.46943972.54690332.71225333 1.19031899.71225333 1.88199085 0 .3377932 0 1.19031902-.69606576 1.96241782-.3561267.40213481-.84175397.70775721-1.44069429.91686731-.61512789.2091101-1.3597564.3056225-2.2500731.3056225-.69606577 0-1.32738125-.0965124-1.87775884-.3056225-.51800244-.2091101-.93887942-.5147325-1.32738125-.85252575-1.2302558-1.12597745-1.06838003-2.62191889-1.06838003-2.76668741l2.21769794.03217078v-.01608539s0 .5951595.25900123.9812089c.32375152.48256179.92269184.72384261 1.79682095.72384261 1.45688186 0 2.10438492-.36996395 2.10438492-.98120887 0-.64341568-.82556639-1.04555048-2.16913522-1.190319-.82556638-.09651236-1.55400732-.27345166-2.13676006-.51473254-.55037759-.22519549-1.00362973-.53081794-1.34356883-.90078195-.48562729-.53081793-.72844093-1.15814821-.72844093-1.86590545 0-.9812089.38850183-1.64070997.72844093-2.02675938.74462851-.83644037 1.94250915-1.27074595 3.59364192-1.27074595 2.16913522 0 3.23751524.94903812 3.75551768 1.73722232.55037759.85252576.58275274 1.83373467.58275274 1.99458859zm10.06037923-3.24924915c2.5900122 0 3.7555177 1.9624178 3.7555177 3.57095698 0 1.47985605-1.0036297 3.55487157-3.7878928 3.55487157h-2.4928867v3.32967619h-2.5252619v-10.45550474zm1.1816931 4.45565354c.2266261-.27345167.3075639-.64341568.3075639-.88469656 0-.25736626-.0971254-.62733027-.339939-.90078194-.2590013-.28953705-.6313156-.41822019-1.149318-.41822019h-2.5252618v2.62191888h2.4928867c.3399391 0 .6151278-.04825618.841754-.14476853.1456881-.08042696.2590011-.16085392.3723142-.27345166zm23.0592023-.88469656c0 1.17423361-.6313154 2.73451662-2.2986358 3.31359075l2.2662607 3.57095701h-2.8328258l-2.2015104-3.32967619h-1.1978806v3.32967619h-2.5252619v-10.45550474h5.0343362c2.5900122 0 3.7555176 1.9624178 3.7555176 3.57095698zm-6.3580128-1.31900213v2.62191888h2.5863076c.3237515 0 .6151279-.04825618.8255664-.14476853.1456882-.08042696.2751888-.16085392.3723142-.27345166.2266261-.27345167.307564-.64341568.307564-.88469656 0-.25736626-.0809379-.62733027-.3399391-.90078194-.2428137-.28953705-.6151279-.41822019-1.1493179-.41822019zm16.054371.25736628h-2.7357004v7.94618361h-2.5252618v-7.94618361h-2.7357005v-2.50932113h7.9966627zm20.7362852-2.50932113v5.34035009l-6.9768454-5.34035009v10.45550474h2.5252619v-5.09906926l6.9768454 5.09906926v-10.45550474z"/></g></g></svg>